<svg fill="#000000" xmlns="http://www.w3.org/2000/svg"  viewBox="0 0 48 48" width="24px" height="24px"><path d="M 20.742188 6 C 19.549202 6 18.403754 6.4731993 17.560547 7.3164062 L 15.025391 9.8535156 C 14.369434 10.509473 14 11.400012 14 12.328125 L 14 13 L 6.5 13 C 3.4802259 13 1 15.480226 1 18.5 L 1 36.5 C 1 39.519774 3.4802259 42 6.5 42 L 32.5 42 C 35.519774 42 38 39.519774 38 36.5 L 38 34.302734 L 44.667969 38.748047 A 1.50015 1.50015 0 0 0 47 37.5 L 47 17.5 A 1.50015 1.50015 0 0 0 45.455078 16 A 1.50015 1.50015 0 0 0 44.667969 16.251953 L 38 20.697266 L 38 18.5 C 38 15.480226 35.519774 13 32.5 13 L 30 13 L 30 8.5 C 30 7.1364058 28.863594 6 27.5 6 L 20.742188 6 z M 32 8 L 32 11 L 36.5 11 C 37.329 11 38 10.328 38 9.5 C 38 8.672 37.329 8 36.5 8 L 32 8 z M 20.742188 9 L 27 9 L 27 13 L 17 13 L 17 12.328125 C 17 12.196238 17.05244 12.068652 17.146484 11.974609 L 19.683594 9.4394531 C 19.964387 9.1586602 20.343172 9 20.742188 9 z M 6.5 16 L 14 16 L 17 16 L 27 16 L 30 16 L 32.5 16 C 33.898226 16 35 17.101774 35 18.5 L 35 23.5 L 35 31.5 L 35 36.5 C 35 37.898226 33.898226 39 32.5 39 L 6.5 39 C 5.1017741 39 4 37.898226 4 36.5 L 4 18.5 C 4 17.101774 5.1017741 16 6.5 16 z M 8.5 19 A 1.50015 1.50015 0 0 0 7 20.5 L 7 26.5 A 1.50015 1.50015 0 0 0 8.5 28 L 17.5 28 A 1.50015 1.50015 0 0 0 19 26.5 L 19 20.5 A 1.50015 1.50015 0 0 0 17.5 19 L 8.5 19 z M 44 20.302734 L 44 34.697266 L 38 30.697266 L 38 24.302734 L 44 20.302734 z M 10 22 L 16 22 L 16 25 L 10 25 L 10 22 z"/></svg>